<mxfile host="Electron" agent="Mozilla/5.0 (Windows NT 10.0; Win64; x64) AppleWebKit/537.36 (KHTML, like Gecko) draw.io/24.7.5 Chrome/126.0.6478.183 Electron/31.3.0 Safari/537.36" version="24.7.5">
  <diagram name="Page-1" id="R-j081ZuEP9yXRBQE0EB">
    <mxGraphModel dx="377" dy="565" grid="1" gridSize="10" guides="1" tooltips="1" connect="1" arrows="1" fold="1" page="1" pageScale="1" pageWidth="827" pageHeight="1169" math="0" shadow="0">
      <root>
        <mxCell id="0" />
        <mxCell id="1" parent="0" />
        <mxCell id="9hrH6tB9lyH-73kWBs_H-1" value="Technician" style="shape=umlActor;verticalLabelPosition=bottom;verticalAlign=top;html=1;outlineConnect=0;" parent="1" vertex="1">
          <mxGeometry x="70" y="120" width="30" height="60" as="geometry" />
        </mxCell>
        <mxCell id="9hrH6tB9lyH-73kWBs_H-3" value="" style="rounded=0;whiteSpace=wrap;html=1;" parent="1" vertex="1">
          <mxGeometry x="140" y="30" width="250" height="360" as="geometry" />
        </mxCell>
        <mxCell id="9hrH6tB9lyH-73kWBs_H-4" value="Replace/Integrate Agent" style="text;html=1;align=center;verticalAlign=middle;whiteSpace=wrap;rounded=0;" parent="1" vertex="1">
          <mxGeometry x="140" y="30" width="250" height="30" as="geometry" />
        </mxCell>
        <mxCell id="9hrH6tB9lyH-73kWBs_H-5" value="Stop Agent operations" style="ellipse;whiteSpace=wrap;html=1;" parent="1" vertex="1">
          <mxGeometry x="280" y="90" width="100" height="50" as="geometry" />
        </mxCell>
        <mxCell id="9hrH6tB9lyH-73kWBs_H-7" value="Decomission faulty hardware" style="ellipse;whiteSpace=wrap;html=1;" parent="1" vertex="1">
          <mxGeometry x="150" y="60" width="100" height="50" as="geometry" />
        </mxCell>
        <mxCell id="9hrH6tB9lyH-73kWBs_H-8" value="" style="endArrow=open;html=1;rounded=0;dashed=1;endFill=0;entryX=0.5;entryY=1;entryDx=0;entryDy=0;exitX=0.5;exitY=0;exitDx=0;exitDy=0;" parent="1" source="wafm5J1n9YdHq9LN4hVZ-4" target="9hrH6tB9lyH-73kWBs_H-7" edge="1">
          <mxGeometry width="50" height="50" relative="1" as="geometry">
            <mxPoint x="50" y="340" as="sourcePoint" />
            <mxPoint x="100" y="290" as="targetPoint" />
          </mxGeometry>
        </mxCell>
        <mxCell id="9hrH6tB9lyH-73kWBs_H-9" value="&amp;lt;&amp;lt;include&amp;gt;&amp;gt;" style="edgeLabel;html=1;align=center;verticalAlign=middle;resizable=0;points=[];labelBackgroundColor=none;" parent="9hrH6tB9lyH-73kWBs_H-8" vertex="1" connectable="0">
          <mxGeometry x="-0.1293" relative="1" as="geometry">
            <mxPoint x="-35" y="1" as="offset" />
          </mxGeometry>
        </mxCell>
        <mxCell id="9hrH6tB9lyH-73kWBs_H-10" value="Install new hardware" style="ellipse;whiteSpace=wrap;html=1;" parent="1" vertex="1">
          <mxGeometry x="276" y="271" width="100" height="50" as="geometry" />
        </mxCell>
        <mxCell id="9hrH6tB9lyH-73kWBs_H-11" value="" style="endArrow=none;html=1;rounded=0;entryX=0;entryY=0.5;entryDx=0;entryDy=0;" parent="1" target="wafm5J1n9YdHq9LN4hVZ-4" edge="1">
          <mxGeometry width="50" height="50" relative="1" as="geometry">
            <mxPoint x="110" y="150" as="sourcePoint" />
            <mxPoint x="150" y="110" as="targetPoint" />
          </mxGeometry>
        </mxCell>
        <mxCell id="9hrH6tB9lyH-73kWBs_H-12" value="" style="endArrow=none;html=1;rounded=0;entryX=0;entryY=0.5;entryDx=0;entryDy=0;" parent="1" target="wafm5J1n9YdHq9LN4hVZ-1" edge="1">
          <mxGeometry width="50" height="50" relative="1" as="geometry">
            <mxPoint x="110" y="150" as="sourcePoint" />
            <mxPoint x="170" y="130" as="targetPoint" />
          </mxGeometry>
        </mxCell>
        <mxCell id="9hrH6tB9lyH-73kWBs_H-13" value="Select new Link Library" style="ellipse;whiteSpace=wrap;html=1;" parent="1" vertex="1">
          <mxGeometry x="160" y="330" width="100" height="50" as="geometry" />
        </mxCell>
        <mxCell id="9hrH6tB9lyH-73kWBs_H-16" value="" style="endArrow=open;html=1;rounded=0;dashed=1;endFill=0;entryX=0.925;entryY=0.224;entryDx=0;entryDy=0;exitX=0;exitY=1;exitDx=0;exitDy=0;entryPerimeter=0;" parent="1" source="9hrH6tB9lyH-73kWBs_H-10" target="9hrH6tB9lyH-73kWBs_H-13" edge="1">
          <mxGeometry width="50" height="50" relative="1" as="geometry">
            <mxPoint x="270" y="458" as="sourcePoint" />
            <mxPoint x="251" y="420" as="targetPoint" />
          </mxGeometry>
        </mxCell>
        <mxCell id="9hrH6tB9lyH-73kWBs_H-17" value="&amp;lt;&amp;lt;extends&amp;gt;&amp;gt;" style="edgeLabel;html=1;align=center;verticalAlign=middle;resizable=0;points=[];labelBackgroundColor=none;" parent="9hrH6tB9lyH-73kWBs_H-16" vertex="1" connectable="0">
          <mxGeometry x="-0.1293" relative="1" as="geometry">
            <mxPoint x="22" y="10" as="offset" />
          </mxGeometry>
        </mxCell>
        <mxCell id="wafm5J1n9YdHq9LN4hVZ-1" value="Start new agent operations" style="ellipse;whiteSpace=wrap;html=1;" vertex="1" parent="1">
          <mxGeometry x="160" y="210" width="100" height="50" as="geometry" />
        </mxCell>
        <mxCell id="wafm5J1n9YdHq9LN4hVZ-2" value="" style="endArrow=open;html=1;rounded=0;dashed=1;endFill=0;entryX=0.128;entryY=0.151;entryDx=0;entryDy=0;exitX=1;exitY=1;exitDx=0;exitDy=0;entryPerimeter=0;" edge="1" parent="1" source="wafm5J1n9YdHq9LN4hVZ-1" target="9hrH6tB9lyH-73kWBs_H-10">
          <mxGeometry width="50" height="50" relative="1" as="geometry">
            <mxPoint x="290" y="198" as="sourcePoint" />
            <mxPoint x="270" y="180" as="targetPoint" />
          </mxGeometry>
        </mxCell>
        <mxCell id="wafm5J1n9YdHq9LN4hVZ-3" value="&amp;lt;&amp;lt;include&amp;gt;&amp;gt;" style="edgeLabel;html=1;align=center;verticalAlign=middle;resizable=0;points=[];labelBackgroundColor=none;" vertex="1" connectable="0" parent="wafm5J1n9YdHq9LN4hVZ-2">
          <mxGeometry x="-0.1293" relative="1" as="geometry">
            <mxPoint x="40" y="-10" as="offset" />
          </mxGeometry>
        </mxCell>
        <mxCell id="wafm5J1n9YdHq9LN4hVZ-4" value="Replace faulty hardware" style="ellipse;whiteSpace=wrap;html=1;" vertex="1" parent="1">
          <mxGeometry x="170" y="150" width="110" height="50" as="geometry" />
        </mxCell>
        <mxCell id="wafm5J1n9YdHq9LN4hVZ-6" value="" style="endArrow=open;html=1;rounded=0;dashed=1;endFill=0;entryX=0.5;entryY=1;entryDx=0;entryDy=0;exitX=1;exitY=0.5;exitDx=0;exitDy=0;" edge="1" parent="1" source="wafm5J1n9YdHq9LN4hVZ-4" target="9hrH6tB9lyH-73kWBs_H-5">
          <mxGeometry width="50" height="50" relative="1" as="geometry">
            <mxPoint x="235" y="160" as="sourcePoint" />
            <mxPoint x="210" y="120" as="targetPoint" />
          </mxGeometry>
        </mxCell>
        <mxCell id="wafm5J1n9YdHq9LN4hVZ-7" value="&amp;lt;&amp;lt;include&amp;gt;&amp;gt;" style="edgeLabel;html=1;align=center;verticalAlign=middle;resizable=0;points=[];labelBackgroundColor=none;" vertex="1" connectable="0" parent="wafm5J1n9YdHq9LN4hVZ-6">
          <mxGeometry x="-0.1293" relative="1" as="geometry">
            <mxPoint x="31" y="5" as="offset" />
          </mxGeometry>
        </mxCell>
      </root>
    </mxGraphModel>
  </diagram>
</mxfile>
